<svg width="220px" height="198px" viewBox="-5 -5 220 198" xmlns="http://www.w3.org/2000/svg">
  <defs>
    <style>
		.cls-1{fill:none;stroke:#fcfeff;stroke-width:6px}
		.cls-2{fill:#fff}
	</style>
  </defs>
  <g transform="matrix(1.293828, 0, 0, 1.298117, -264.807678, -196.774246)">
    <g transform="translate(-.222 -6)">
      <g transform="translate(6268.221 2688)">
        <g transform="matrix(1, 0, 0, 1, -5945.075684, -2429.499756)">
          <path d="M 27.051 7.703 L 27.051 46.22" class="cls-1"></path>
          <path d="M 46.374 26.962 L 27.051 26.962 L 7.729 26.962" class="cls-1"></path>
        </g>
        <path d="M -5968.347 -2390.213 L -6063.329 -2390.213 L -6063.329 -2530.416 L -5905.658 -2530.416 L -5905.658 -2461.523" class="cls-1"></path>
        <path d="M -6063.329 -2505.765 L -5908.749 -2505.765" class="cls-1"></path>
      </g>
    </g>
    <circle cx="-4.143" cy="-0.09" r="3.865" class="cls-2" transform="translate(232 164)"></circle>
    <circle cx="-1.737" cy="-0.09" r="3.865" class="cls-2" transform="translate(218 164)"></circle>
    <circle cx="-6.55" cy="-0.09" r="4" class="cls-2" transform="translate(246 164)"></circle>
  </g>
  <path d="M 169.933 69.871 C 169.977 70.034 170 70.202 170 70.373 L 170 96.889 C 170 97.583 169.63 98.234 169.029 98.599 L 146.773 112.135 L 146.773 137.531 C 146.773 138.223 146.406 138.872 145.807 139.24 L 99.349 167.491 C 99.243 167.557 99.127 167.599 99.01 167.642 C 98.968 167.657 98.926 167.688 98.88 167.699 C 98.557 167.798 98.216 167.808 97.89 167.734 C 97.837 167.719 97.789 167.693 97.737 167.675 C 97.632 167.639 97.52 167.609 97.419 167.555 L 50.971 142.319 C 50.373 141.995 50 141.367 50 140.674 L 50 61.126 C 50 60.95 50.024 60.781 50.067 60.614 C 50.082 60.559 50.118 60.505 50.136 60.449 C 50.17 60.349 50.205 60.241 50.259 60.146 C 50.295 60.083 50.349 60.029 50.392 59.971 C 50.446 59.891 50.497 59.809 50.563 59.738 C 50.619 59.683 50.691 59.64 50.754 59.591 C 50.824 59.53 50.887 59.464 50.967 59.416 L 50.97 59.416 L 74.193 45.289 C 74.793 44.928 75.529 44.904 76.128 45.227 L 99.352 57.845 L 99.357 57.845 C 99.433 57.89 99.499 57.949 99.57 58.001 C 99.632 58.048 99.703 58.09 99.759 58.142 C 99.825 58.21 99.873 58.286 99.931 58.361 C 99.973 58.421 100.029 58.469 100.063 58.528 C 100.119 58.625 100.149 58.726 100.189 58.825 C 100.208 58.882 100.242 58.93 100.256 58.987 C 100.303 59.152 100.323 59.321 100.323 59.491 L 100.323 109.176 L 119.677 97.405 L 119.677 72.005 C 119.677 71.834 119.701 71.664 119.744 71.498 C 119.761 71.441 119.792 71.389 119.811 71.333 C 119.851 71.231 119.886 71.125 119.937 71.03 C 119.974 70.966 120.027 70.912 120.069 70.855 C 120.127 70.775 120.175 70.693 120.241 70.622 C 120.297 70.567 120.368 70.523 120.43 70.472 C 120.502 70.411 120.567 70.346 120.643 70.297 L 120.646 70.297 L 143.874 56.173 C 144.472 55.81 145.209 55.786 145.807 56.111 L 169.03 68.728 C 169.113 68.773 169.176 68.832 169.248 68.885 C 169.309 68.929 169.378 68.971 169.435 69.024 C 169.503 69.094 169.551 69.169 169.608 69.245 C 169.653 69.302 169.705 69.35 169.738 69.41 C 169.795 69.505 169.825 69.607 169.864 69.709 C 169.887 69.761 169.918 69.814 169.933 69.871 Z M 166.128 95.896 L 166.128 73.847 L 158.001 78.79 L 146.773 85.618 L 146.773 107.669 L 166.131 95.896 L 166.128 95.896 Z M 142.904 136.537 L 142.904 114.473 L 131.859 121.139 L 100.321 140.162 L 100.321 162.434 L 142.904 136.537 Z M 53.872 64.345 L 53.872 139.429 L 96.45 162.559 L 96.45 140.291 L 74.206 128.425 L 74.199 128.422 L 74.19 128.416 C 74.113 128.375 74.05 128.314 73.981 128.264 C 73.92 128.218 73.851 128.182 73.797 128.128 L 73.792 128.12 C 73.729 128.063 73.687 127.991 73.633 127.925 C 73.585 127.859 73.527 127.807 73.488 127.739 L 73.486 127.735 C 73.441 127.661 73.416 127.574 73.384 127.495 C 73.353 127.423 73.312 127.357 73.293 127.28 L 73.293 127.277 C 73.269 127.186 73.264 127.091 73.255 126.997 C 73.245 126.925 73.224 126.851 73.224 126.779 L 73.224 126.775 L 73.224 74.861 L 61.999 68.759 L 53.872 64.349 L 53.872 64.345 Z M 75.163 49.168 L 55.813 60.936 L 75.159 71.447 L 94.506 59.677 L 75.159 49.168 L 75.163 49.168 Z M 85.225 118.357 L 96.451 111.529 L 96.451 62.963 L 88.326 67.906 L 77.096 74.736 L 77.096 123.302 L 85.225 118.357 Z M 144.84 60.05 L 125.491 71.818 L 144.84 82.328 L 164.185 70.56 L 144.84 60.05 Z M 142.904 85.744 L 131.674 79.643 L 123.549 75.229 L 123.549 97.279 L 134.775 103.376 L 142.904 107.794 L 142.904 85.744 Z M 98.383 136.879 L 126.763 119.758 L 140.949 111.199 L 121.615 100.696 L 99.354 114.233 L 79.065 126.575 L 98.383 136.879 Z" class="cls-2"></path>
</svg>
